<svg width="259" height="51" viewBox="0 0 259 51" fill="none" xmlns="http://www.w3.org/2000/svg">
<path fill-rule="evenodd" clip-rule="evenodd" d="M202.309 17.4546H194.99C193.762 17.5275 193.418 17.8331 193.418 19.3292V23.4534H202.309V17.4546ZM206.206 14.152V32.1359H202.309V26.9665H193.418V32.1359H189.522V18.0373C189.522 15.5462 190.527 14.152 193.418 14.152H206.206ZM185.625 18.0339V27.7664C185.625 30.8648 183.89 32.1325 181.728 32.1325H169.436V14.1487H181.728C185.047 14.1487 185.625 16.266 185.625 18.0339ZM181.682 19.1163C181.682 18.131 181.083 17.4512 180.035 17.4512H173.333V28.688L180.035 28.6875C181.561 28.6098 181.682 27.6916 181.682 26.9631V19.1163ZM90 14.1487H93.8969V21.237H102.616V14.1487H106.512V32.132H102.616V24.7931H93.8969V32.132H90V14.1487ZM113.191 14.1487L118.076 21.5006L122.903 14.1487H127.635L120.023 25.6461V32.1325H116.126V25.6451L108.461 14.1487H113.191ZM149.509 14.1487H162.067C163.857 14.1487 165.59 14.4007 165.539 18.0339V32.1325H161.642V19.3258C161.642 17.7771 161.457 17.4512 160.246 17.4512H153.407V32.1325H149.509V14.1487ZM214 14.152V32.1359H210.102V14.152H214ZM129.584 32.1325H142.141C144.637 32.1325 145.664 31.4079 145.613 27.7968V14.1487H141.716V26.9867C141.716 28.5258 141.531 28.7126 140.32 28.7126H133.481L133.481 14.1487H129.584V32.1325Z" fill="white"/>
<path fill-rule="evenodd" clip-rule="evenodd" d="M49.9326 35.4796C50.4732 38.4207 49.009 40.8637 47.7923 43.235C46.4409 45.4413 44.2105 47.3375 41.5297 47.0537C35.5138 46.9589 29.6342 45.9865 24.1816 44.2544C23.9341 44.1835 23.6865 44.0169 23.551 43.7802C23.4382 43.4478 23.5964 43.1394 23.8213 42.9265C28.8007 38.6806 34.7257 36.7126 40.5833 34.6482C42.7683 33.9843 45.0895 33.2725 47.5448 33.6049C48.5577 33.7476 49.5715 34.4832 49.9326 35.4796ZM70.4566 22.9091C73.2503 25.3282 75.7737 28.6256 74.9174 32.6101C73.5206 38.4925 67.4381 41.6233 62.5942 43.6152C59.958 44.5406 57.2999 45.4899 54.4161 45.7745C54.2359 45.7505 53.9429 45.7976 53.8975 45.513L53.9649 45.1814C58.0653 40.3186 61.1739 34.8642 63.901 29.3374C65.1623 26.8466 66.3343 24.2856 67.4154 21.7709C67.5729 21.5812 67.7311 21.4863 67.9113 21.4154C68.9243 21.5094 69.6458 22.34 70.4566 22.9091ZM31.1423 16.6474L31.0522 17.0028C25.1272 24.0943 21.2297 32.3248 17.5351 40.5075C16.8144 41.2192 16.1156 40.2699 15.4622 39.9615C12.1726 37.6851 9.19877 34.0082 10.055 29.6443C11.4292 23.9524 16.9938 20.9164 21.6355 18.8536C24.3838 17.7624 27.2456 16.8849 30.2641 16.3867C30.5798 16.3859 30.9849 16.3389 31.1423 16.6474ZM60.544 17.7856C60.8817 17.9753 61.2875 18.0462 61.4904 18.4017C61.6706 18.805 61.3102 19.0656 61.1073 19.3271C56.4436 23.1689 51.1046 25.3043 45.652 27.1782C42.8803 27.8899 40.0866 29.1708 37.0007 28.459C36.2792 28.2693 35.6266 27.7712 35.2208 27.0355C34.4546 24.8061 35.4911 22.4819 36.392 20.537C37.586 18.094 39.7043 15.2238 42.6327 15.1768C48.9408 15.1289 54.8885 16.1253 60.544 17.7856ZM68.3391 17.9753C73.1155 20.7267 78.5227 25.5649 77.9594 32.0163C77.3061 37.9935 72.0117 42.1677 67.2806 44.6825C53.4698 51.6321 34.0723 51.8449 19.8109 45.7737C14.989 43.663 9.58186 40.034 7.55361 34.5781C5.9993 30.0954 7.89127 25.423 11.0688 22.3161C17.7146 15.9595 26.1857 13.7779 34.9051 12.5202C44.368 11.3102 54.3253 12.3775 62.7964 15.4374C64.6891 16.1731 66.5591 16.9797 68.3391 17.9753Z" fill="white"/>
<path d="M128.982 37.5059H126.168V35.6159H133.98V37.5059H131.166V45.1359H128.982V37.5059ZM138.39 41.4399H137.256V45.1359H135.072V35.6159H139.482C139.94 35.6159 140.36 35.6859 140.742 35.8259C141.134 35.9566 141.47 36.1479 141.75 36.3999C142.04 36.6519 142.264 36.9599 142.422 37.3239C142.581 37.6786 142.66 38.0799 142.66 38.5279C142.66 39.2092 142.483 39.7879 142.128 40.2639C141.774 40.7306 141.302 41.0619 140.714 41.2579L143.626 45.0939V45.1359H141.036L138.39 41.4399ZM139.244 39.5499C139.636 39.5499 139.926 39.4612 140.112 39.2839C140.308 39.0972 140.406 38.8452 140.406 38.5279C140.406 38.2106 140.308 37.9632 140.112 37.7859C139.926 37.5992 139.636 37.5059 139.244 37.5059H137.256V39.5499H139.244ZM148.333 45.3459C147.624 45.3459 147.008 45.2386 146.485 45.0239C145.972 44.7999 145.542 44.4966 145.197 44.1139C144.861 43.7219 144.609 43.2646 144.441 42.7419C144.273 42.2192 144.189 41.6499 144.189 41.0339V35.6159H146.373V40.9079C146.373 41.2626 146.406 41.5892 146.471 41.8879C146.536 42.1866 146.644 42.4432 146.793 42.6579C146.952 42.8726 147.157 43.0406 147.409 43.1619C147.661 43.2739 147.969 43.3299 148.333 43.3299C148.697 43.3299 149 43.2739 149.243 43.1619C149.495 43.0406 149.696 42.8726 149.845 42.6579C150.004 42.4432 150.116 42.1866 150.181 41.8879C150.256 41.5892 150.293 41.2626 150.293 40.9079V35.6159H152.477V41.0339C152.477 41.6499 152.393 42.2192 152.225 42.7419C152.057 43.2646 151.8 43.7219 151.455 44.1139C151.119 44.4966 150.69 44.7999 150.167 45.0239C149.654 45.2386 149.042 45.3459 148.333 45.3459ZM158.609 45.3459C157.89 45.3459 157.232 45.2246 156.635 44.9819C156.038 44.7299 155.52 44.3846 155.081 43.9459C154.652 43.5072 154.316 42.9846 154.073 42.3779C153.83 41.7619 153.709 41.0946 153.709 40.3759C153.709 39.6572 153.83 38.9946 154.073 38.3879C154.316 37.7812 154.652 37.2586 155.081 36.8199C155.52 36.3719 156.038 36.0266 156.635 35.7839C157.232 35.5319 157.89 35.4059 158.609 35.4059C159.617 35.4059 160.476 35.6112 161.185 36.0219C161.904 36.4232 162.478 36.9692 162.907 37.6599L161.297 38.8779C160.998 38.4299 160.648 38.0752 160.247 37.8139C159.846 37.5526 159.314 37.4219 158.651 37.4219C158.231 37.4219 157.853 37.4966 157.517 37.6459C157.19 37.7952 156.91 38.0052 156.677 38.2759C156.453 38.5372 156.276 38.8499 156.145 39.2139C156.024 39.5686 155.963 39.9559 155.963 40.3759C155.963 40.7959 156.024 41.1879 156.145 41.5519C156.276 41.9066 156.453 42.2192 156.677 42.4899C156.91 42.7512 157.19 42.9566 157.517 43.1059C157.853 43.2552 158.231 43.3299 158.651 43.3299C159.314 43.3299 159.846 43.1992 160.247 42.9379C160.648 42.6766 160.998 42.3219 161.297 41.8739L162.907 43.0919C162.478 43.7826 161.904 44.3332 161.185 44.7439C160.476 45.1452 159.617 45.3459 158.609 45.3459ZM164.043 35.6159H166.227V39.7459L169.601 35.6159H172.205V35.6579L168.789 39.6479L172.401 45.0939V45.1359H169.867L167.375 41.3139L166.227 42.6579V45.1359H164.043V35.6159ZM178.651 45.3459C178.147 45.3459 177.695 45.2759 177.293 45.1359C176.892 44.9959 176.551 44.8046 176.271 44.5619C175.991 44.3099 175.777 44.0159 175.627 43.6799C175.478 43.3439 175.403 42.9799 175.403 42.5879C175.403 41.8879 175.59 41.3232 175.963 40.8939C176.346 40.4552 176.873 40.0959 177.545 39.8159C177.331 39.5359 177.167 39.2559 177.055 38.9759C176.953 38.6959 176.901 38.3786 176.901 38.0239C176.901 37.6972 176.971 37.3799 177.111 37.0719C177.251 36.7546 177.447 36.4746 177.699 36.2319C177.951 35.9799 178.255 35.7792 178.609 35.6299C178.973 35.4806 179.375 35.4059 179.813 35.4059C180.233 35.4059 180.616 35.4712 180.961 35.6019C181.316 35.7232 181.619 35.8959 181.871 36.1199C182.133 36.3439 182.333 36.6052 182.473 36.9039C182.613 37.2026 182.683 37.5246 182.683 37.8699C182.683 38.5046 182.492 39.0226 182.109 39.4239C181.736 39.8159 181.251 40.1286 180.653 40.3619L181.787 41.5939L183.551 39.8019L184.867 41.0339L182.991 42.9239L184.993 45.0939V45.1359H182.263L181.521 44.3099C181.101 44.6366 180.649 44.8932 180.163 45.0799C179.687 45.2572 179.183 45.3459 178.651 45.3459ZM178.735 43.5259C179.034 43.5259 179.314 43.4792 179.575 43.3859C179.837 43.2832 180.089 43.1432 180.331 42.9659L178.637 41.0759C178.301 41.2252 178.026 41.4026 177.811 41.6079C177.597 41.8132 177.489 42.0792 177.489 42.4059C177.489 42.7419 177.606 43.0126 177.839 43.2179C178.073 43.4232 178.371 43.5259 178.735 43.5259ZM178.917 38.0099C178.917 38.1872 178.964 38.3552 179.057 38.5139C179.16 38.6632 179.323 38.8686 179.547 39.1299C179.977 38.9619 180.271 38.7799 180.429 38.5839C180.588 38.3879 180.667 38.1732 180.667 37.9399C180.667 37.8559 180.649 37.7719 180.611 37.6879C180.574 37.5946 180.518 37.5106 180.443 37.4359C180.378 37.3519 180.289 37.2866 180.177 37.2399C180.065 37.1839 179.939 37.1559 179.799 37.1559C179.641 37.1559 179.505 37.1839 179.393 37.2399C179.291 37.2959 179.202 37.3706 179.127 37.4639C179.053 37.5479 178.997 37.6412 178.959 37.7439C178.931 37.8372 178.917 37.9259 178.917 38.0099ZM188.83 35.6159H192.946C193.422 35.6159 193.852 35.6719 194.234 35.7839C194.617 35.8959 194.944 36.0639 195.214 36.2879C195.494 36.5026 195.709 36.7686 195.858 37.0859C196.008 37.4032 196.082 37.7626 196.082 38.1639C196.082 38.5466 195.989 38.9012 195.802 39.2279C195.625 39.5452 195.368 39.8159 195.032 40.0399C195.564 40.2266 195.989 40.5112 196.306 40.8939C196.624 41.2672 196.782 41.7666 196.782 42.3919C196.782 43.2879 196.484 43.9692 195.886 44.4359C195.289 44.9026 194.43 45.1359 193.31 45.1359H188.83V35.6159ZM193.226 43.3439C193.684 43.3439 194.015 43.2506 194.22 43.0639C194.426 42.8772 194.528 42.6159 194.528 42.2799C194.528 41.9346 194.426 41.6686 194.22 41.4819C194.015 41.2952 193.684 41.2019 193.226 41.2019H191.014V43.3439H193.226ZM192.638 39.4099C193.096 39.4099 193.408 39.3166 193.576 39.1299C193.744 38.9432 193.828 38.7006 193.828 38.4019C193.828 38.1032 193.744 37.8652 193.576 37.6879C193.408 37.5012 193.096 37.4079 192.638 37.4079H191.014V39.4099H192.638ZM202.091 45.3459C201.381 45.3459 200.765 45.2386 200.243 45.0239C199.729 44.7999 199.3 44.4966 198.955 44.1139C198.619 43.7219 198.367 43.2646 198.199 42.7419C198.031 42.2192 197.947 41.6499 197.947 41.0339V35.6159H200.131V40.9079C200.131 41.2626 200.163 41.5892 200.229 41.8879C200.294 42.1866 200.401 42.4432 200.551 42.6579C200.709 42.8726 200.915 43.0406 201.167 43.1619C201.419 43.2739 201.727 43.3299 202.091 43.3299C202.455 43.3299 202.758 43.2739 203.001 43.1619C203.253 43.0406 203.453 42.8726 203.603 42.6579C203.761 42.4432 203.873 42.1866 203.939 41.8879C204.013 41.5892 204.051 41.2626 204.051 40.9079V35.6159H206.235V41.0339C206.235 41.6499 206.151 42.2192 205.983 42.7419C205.815 43.2646 205.558 43.7219 205.213 44.1139C204.877 44.4966 204.447 44.7999 203.925 45.0239C203.411 45.2386 202.8 45.3459 202.091 45.3459ZM211.345 45.3459C210.776 45.3459 210.272 45.2806 209.833 45.1499C209.394 45.0286 209.002 44.8652 208.657 44.6599C208.321 44.4546 208.032 44.2306 207.789 43.9879C207.546 43.7359 207.336 43.4839 207.159 43.2319L208.545 41.8179C208.685 42.0232 208.844 42.2239 209.021 42.4199C209.208 42.6066 209.418 42.7746 209.651 42.9239C209.884 43.0732 210.146 43.1946 210.435 43.2879C210.724 43.3719 211.042 43.4139 211.387 43.4139C211.882 43.4139 212.255 43.3112 212.507 43.1059C212.759 42.9006 212.885 42.6486 212.885 42.3499C212.885 42.2379 212.866 42.1306 212.829 42.0279C212.792 41.9252 212.722 41.8319 212.619 41.7479C212.526 41.6546 212.39 41.5752 212.213 41.5099C212.045 41.4352 211.826 41.3792 211.555 41.3419L210.799 41.2299C210.36 41.1646 209.959 41.0572 209.595 40.9079C209.24 40.7492 208.932 40.5532 208.671 40.3199C208.419 40.0772 208.223 39.8019 208.083 39.4939C207.943 39.1766 207.873 38.8266 207.873 38.4439C207.873 38.0146 207.952 37.6132 208.111 37.2399C208.279 36.8666 208.517 36.5446 208.825 36.2739C209.133 36.0032 209.506 35.7932 209.945 35.6439C210.384 35.4852 210.874 35.4059 211.415 35.4059C212.162 35.4059 212.834 35.5459 213.431 35.8259C214.028 36.1059 214.509 36.4699 214.873 36.9179L213.529 38.3739C213.23 38.0472 212.899 37.7952 212.535 37.6179C212.171 37.4312 211.784 37.3379 211.373 37.3379C210.981 37.3379 210.673 37.4266 210.449 37.6039C210.234 37.7812 210.127 37.9819 210.127 38.2059C210.127 38.4206 210.211 38.6119 210.379 38.7799C210.547 38.9386 210.818 39.0459 211.191 39.1019L211.947 39.2139C212.964 39.3632 213.748 39.6899 214.299 40.1939C214.859 40.6886 215.139 41.3559 215.139 42.1959C215.139 42.6719 215.041 43.1059 214.845 43.4979C214.658 43.8806 214.397 44.2119 214.061 44.4919C213.725 44.7626 213.324 44.9726 212.857 45.1219C212.4 45.2712 211.896 45.3459 211.345 45.3459Z" fill="white"/>
</svg>
