<svg width="224" height="46" viewBox="0 0 224 46" fill="none" xmlns="http://www.w3.org/2000/svg">
<path fill-rule="evenodd" clip-rule="evenodd" d="M174.97 14.7552H168.64C167.578 14.8182 167.281 15.0825 167.281 16.3764V19.9433H174.97V14.7552ZM178.34 11.8989V27.4525H174.97V22.9817H167.281V27.4525H163.911V15.2592C163.911 13.1047 164.78 11.8989 167.281 11.8989H178.34ZM160.541 15.2562V23.6735C160.541 26.3532 159.04 27.4496 157.17 27.4496H146.539V11.896H157.17C160.041 11.896 160.541 13.7273 160.541 15.2562ZM157.13 16.1923C157.13 15.3402 156.612 14.7523 155.706 14.7523H149.91V24.4706L155.706 24.4701C157.026 24.4029 157.13 23.6088 157.13 22.9787V16.1923ZM77.8378 11.896H81.2081V18.0265H88.7486V11.896H92.1188V27.4492H88.7486V21.102H81.2081V27.4492H77.8378V11.896ZM97.8951 11.896L102.12 18.2545L106.295 11.896H110.387L103.804 21.8397V27.4496H100.433V21.8389L93.804 11.896H97.8951ZM129.305 11.896H140.166C141.714 11.896 143.213 12.1139 143.169 15.2562V27.4496H139.799V16.3735C139.799 15.0341 139.639 14.7523 138.591 14.7523H132.677V27.4496H129.305V11.896ZM185.081 11.8989V27.4525H181.71V11.8989H185.081ZM112.072 27.4496H122.932C125.092 27.4496 125.979 26.8229 125.936 23.6998V11.896H122.565V22.9992C122.565 24.3303 122.405 24.4919 121.358 24.4919H115.443L115.443 11.896H112.072V27.4496Z" fill="#003984"/>
<path fill-rule="evenodd" clip-rule="evenodd" d="M43.185 30.3444C43.6525 32.8882 42.3862 35.001 41.3339 37.0518C40.1651 38.96 38.2361 40.5999 35.9176 40.3545C30.7147 40.2725 25.6296 39.4315 20.9139 37.9335C20.6998 37.8722 20.4856 37.7281 20.3684 37.5234C20.2709 37.2359 20.4077 36.9691 20.6022 36.7851C24.9087 33.1129 30.033 31.4109 35.0991 29.6254C36.9888 29.0512 38.9963 28.4356 41.1198 28.7231C41.9959 28.8465 42.8727 29.4828 43.185 30.3444ZM60.9355 19.4727C63.3517 21.5649 65.534 24.4167 64.7935 27.8628C63.5854 32.9502 58.3249 35.658 54.1356 37.3807C51.8556 38.181 49.5567 39.002 47.0626 39.2481C46.9068 39.2274 46.6534 39.2681 46.6141 39.022L46.6724 38.7352C50.2187 34.5295 52.9072 29.8123 55.2657 25.0323C56.3566 22.8781 57.3702 20.6632 58.3052 18.4883C58.4414 18.3242 58.5783 18.2422 58.7341 18.1808C59.6102 18.2622 60.2342 18.9805 60.9355 19.4727ZM26.9339 14.0571L26.856 14.3646C21.7317 20.4977 18.3609 27.616 15.1655 34.6929C14.5422 35.3085 13.9378 34.4875 13.3727 34.2207C10.5277 32.2519 7.95572 29.0719 8.69628 25.2977C9.88471 20.375 14.6974 17.7493 18.7118 15.9652C21.0887 15.0215 23.5638 14.2625 26.1744 13.8317C26.4474 13.831 26.7977 13.7903 26.9339 14.0571ZM52.3624 15.0415C52.6545 15.2056 53.0054 15.2669 53.1809 15.5744C53.3367 15.9232 53.0251 16.1486 52.8496 16.3747C48.8161 19.6974 44.1986 21.5442 39.4829 23.1648C37.0857 23.7804 34.6695 24.8882 32.0007 24.2726C31.3766 24.1086 30.8122 23.6777 30.4613 23.0414C29.7986 21.1133 30.695 19.1032 31.4742 17.4212C32.5068 15.3083 34.3389 12.8259 36.8716 12.7853C42.3272 12.7439 47.4712 13.6056 52.3624 15.0415ZM59.1041 15.2056C63.2351 17.5852 67.9115 21.7696 67.4244 27.3492C66.8593 32.5187 62.2804 36.1288 58.1887 38.3037C46.2441 44.3142 29.468 44.4982 17.1338 39.2474C12.9635 37.422 8.28704 34.2834 6.53288 29.5648C5.18861 25.6879 6.82491 21.6469 9.57303 18.9598C15.3207 13.4622 22.6471 11.5754 30.1882 10.4877C38.3723 9.44121 46.984 10.3643 54.3104 13.0107C55.9474 13.647 57.5647 14.3446 59.1041 15.2056Z" fill="#003984"/>
<path d="M123.13 33.55H121.12V32.2H126.7V33.55H124.69V39H123.13V33.55ZM129.85 36.36H129.04V39H127.48V32.2H130.63C130.957 32.2 131.257 32.25 131.53 32.35C131.81 32.4433 132.05 32.58 132.25 32.76C132.457 32.94 132.617 33.16 132.73 33.42C132.844 33.6733 132.9 33.96 132.9 34.28C132.9 34.7667 132.774 35.18 132.52 35.52C132.267 35.8533 131.93 36.09 131.51 36.23L133.59 38.97V39H131.74L129.85 36.36ZM130.46 35.01C130.74 35.01 130.947 34.9467 131.08 34.82C131.22 34.6867 131.29 34.5067 131.29 34.28C131.29 34.0533 131.22 33.8767 131.08 33.75C130.947 33.6167 130.74 33.55 130.46 33.55H129.04V35.01H130.46ZM136.952 39.15C136.445 39.15 136.005 39.0733 135.632 38.92C135.265 38.76 134.959 38.5433 134.712 38.27C134.472 37.99 134.292 37.6633 134.172 37.29C134.052 36.9167 133.992 36.51 133.992 36.07V32.2H135.552V35.98C135.552 36.2333 135.575 36.4667 135.622 36.68C135.669 36.8933 135.745 37.0767 135.852 37.23C135.965 37.3833 136.112 37.5033 136.292 37.59C136.472 37.67 136.692 37.71 136.952 37.71C137.212 37.71 137.429 37.67 137.602 37.59C137.782 37.5033 137.925 37.3833 138.032 37.23C138.145 37.0767 138.225 36.8933 138.272 36.68C138.325 36.4667 138.352 36.2333 138.352 35.98V32.2H139.912V36.07C139.912 36.51 139.852 36.9167 139.732 37.29C139.612 37.6633 139.429 37.99 139.182 38.27C138.942 38.5433 138.635 38.76 138.262 38.92C137.895 39.0733 137.459 39.15 136.952 39.15ZM144.292 39.15C143.779 39.15 143.309 39.0633 142.882 38.89C142.456 38.71 142.086 38.4633 141.772 38.15C141.466 37.8367 141.226 37.4633 141.052 37.03C140.879 36.59 140.792 36.1133 140.792 35.6C140.792 35.0867 140.879 34.6133 141.052 34.18C141.226 33.7467 141.466 33.3733 141.772 33.06C142.086 32.74 142.456 32.4933 142.882 32.32C143.309 32.14 143.779 32.05 144.292 32.05C145.012 32.05 145.626 32.1967 146.132 32.49C146.646 32.7767 147.056 33.1667 147.362 33.66L146.212 34.53C145.999 34.21 145.749 33.9567 145.462 33.77C145.176 33.5833 144.796 33.49 144.322 33.49C144.022 33.49 143.752 33.5433 143.512 33.65C143.279 33.7567 143.079 33.9067 142.912 34.1C142.752 34.2867 142.626 34.51 142.532 34.77C142.446 35.0233 142.402 35.3 142.402 35.6C142.402 35.9 142.446 36.18 142.532 36.44C142.626 36.6933 142.752 36.9167 142.912 37.11C143.079 37.2967 143.279 37.4433 143.512 37.55C143.752 37.6567 144.022 37.71 144.322 37.71C144.796 37.71 145.176 37.6167 145.462 37.43C145.749 37.2433 145.999 36.99 146.212 36.67L147.362 37.54C147.056 38.0333 146.646 38.4267 146.132 38.72C145.626 39.0067 145.012 39.15 144.292 39.15ZM148.174 32.2H149.734V35.15L152.144 32.2H154.004V32.23L151.564 35.08L154.144 38.97V39H152.334L150.554 36.27L149.734 37.23V39H148.174V32.2ZM158.608 39.15C158.248 39.15 157.925 39.1 157.638 39C157.351 38.9 157.108 38.7633 156.908 38.59C156.708 38.41 156.555 38.2 156.448 37.96C156.341 37.72 156.288 37.46 156.288 37.18C156.288 36.68 156.421 36.2767 156.688 35.97C156.961 35.6567 157.338 35.4 157.818 35.2C157.665 35 157.548 34.8 157.468 34.6C157.395 34.4 157.358 34.1733 157.358 33.92C157.358 33.6867 157.408 33.46 157.508 33.24C157.608 33.0133 157.748 32.8133 157.928 32.64C158.108 32.46 158.325 32.3167 158.578 32.21C158.838 32.1033 159.125 32.05 159.438 32.05C159.738 32.05 160.011 32.0967 160.258 32.19C160.511 32.2767 160.728 32.4 160.908 32.56C161.095 32.72 161.238 32.9067 161.338 33.12C161.438 33.3333 161.488 33.5633 161.488 33.81C161.488 34.2633 161.351 34.6333 161.078 34.92C160.811 35.2 160.465 35.4233 160.038 35.59L160.848 36.47L162.108 35.19L163.048 36.07L161.708 37.42L163.138 38.97V39H161.188L160.658 38.41C160.358 38.6433 160.035 38.8267 159.688 38.96C159.348 39.0867 158.988 39.15 158.608 39.15ZM158.668 37.85C158.881 37.85 159.081 37.8167 159.268 37.75C159.455 37.6767 159.635 37.5767 159.808 37.45L158.598 36.1C158.358 36.2067 158.161 36.3333 158.008 36.48C157.855 36.6267 157.778 36.8167 157.778 37.05C157.778 37.29 157.861 37.4833 158.028 37.63C158.195 37.7767 158.408 37.85 158.668 37.85ZM158.798 33.91C158.798 34.0367 158.831 34.1567 158.898 34.27C158.971 34.3767 159.088 34.5233 159.248 34.71C159.555 34.59 159.765 34.46 159.878 34.32C159.991 34.18 160.048 34.0267 160.048 33.86C160.048 33.8 160.035 33.74 160.008 33.68C159.981 33.6133 159.941 33.5533 159.888 33.5C159.841 33.44 159.778 33.3933 159.698 33.36C159.618 33.32 159.528 33.3 159.428 33.3C159.315 33.3 159.218 33.32 159.138 33.36C159.065 33.4 159.001 33.4533 158.948 33.52C158.895 33.58 158.855 33.6467 158.828 33.72C158.808 33.7867 158.798 33.85 158.798 33.91ZM165.879 32.2H168.819C169.159 32.2 169.465 32.24 169.739 32.32C170.012 32.4 170.245 32.52 170.439 32.68C170.639 32.8333 170.792 33.0233 170.899 33.25C171.005 33.4767 171.059 33.7333 171.059 34.02C171.059 34.2933 170.992 34.5467 170.859 34.78C170.732 35.0067 170.549 35.2 170.309 35.36C170.689 35.4933 170.992 35.6967 171.219 35.97C171.445 36.2367 171.559 36.5933 171.559 37.04C171.559 37.68 171.345 38.1667 170.919 38.5C170.492 38.8333 169.879 39 169.079 39H165.879V32.2ZM169.019 37.72C169.345 37.72 169.582 37.6533 169.729 37.52C169.875 37.3867 169.949 37.2 169.949 36.96C169.949 36.7133 169.875 36.5233 169.729 36.39C169.582 36.2567 169.345 36.19 169.019 36.19H167.439V37.72H169.019ZM168.599 34.91C168.925 34.91 169.149 34.8433 169.269 34.71C169.389 34.5767 169.449 34.4033 169.449 34.19C169.449 33.9767 169.389 33.8067 169.269 33.68C169.149 33.5467 168.925 33.48 168.599 33.48H167.439V34.91H168.599ZM175.351 39.15C174.844 39.15 174.404 39.0733 174.031 38.92C173.664 38.76 173.357 38.5433 173.111 38.27C172.871 37.99 172.691 37.6633 172.571 37.29C172.451 36.9167 172.391 36.51 172.391 36.07V32.2H173.951V35.98C173.951 36.2333 173.974 36.4667 174.021 36.68C174.067 36.8933 174.144 37.0767 174.251 37.23C174.364 37.3833 174.511 37.5033 174.691 37.59C174.871 37.67 175.091 37.71 175.351 37.71C175.611 37.71 175.827 37.67 176.001 37.59C176.181 37.5033 176.324 37.3833 176.431 37.23C176.544 37.0767 176.624 36.8933 176.671 36.68C176.724 36.4667 176.751 36.2333 176.751 35.98V32.2H178.311V36.07C178.311 36.51 178.251 36.9167 178.131 37.29C178.011 37.6633 177.827 37.99 177.581 38.27C177.341 38.5433 177.034 38.76 176.661 38.92C176.294 39.0733 175.857 39.15 175.351 39.15ZM181.961 39.15C181.554 39.15 181.194 39.1033 180.881 39.01C180.567 38.9233 180.287 38.8067 180.041 38.66C179.801 38.5133 179.594 38.3533 179.421 38.18C179.247 38 179.097 37.82 178.971 37.64L179.961 36.63C180.061 36.7767 180.174 36.92 180.301 37.06C180.434 37.1933 180.584 37.3133 180.751 37.42C180.917 37.5267 181.104 37.6133 181.311 37.68C181.517 37.74 181.744 37.77 181.991 37.77C182.344 37.77 182.611 37.6967 182.791 37.55C182.971 37.4033 183.061 37.2233 183.061 37.01C183.061 36.93 183.047 36.8533 183.021 36.78C182.994 36.7067 182.944 36.64 182.871 36.58C182.804 36.5133 182.707 36.4567 182.581 36.41C182.461 36.3567 182.304 36.3167 182.111 36.29L181.571 36.21C181.257 36.1633 180.971 36.0867 180.711 35.98C180.457 35.8667 180.237 35.7267 180.051 35.56C179.871 35.3867 179.731 35.19 179.631 34.97C179.531 34.7433 179.481 34.4933 179.481 34.22C179.481 33.9133 179.537 33.6267 179.651 33.36C179.771 33.0933 179.941 32.8633 180.161 32.67C180.381 32.4767 180.647 32.3267 180.961 32.22C181.274 32.1067 181.624 32.05 182.011 32.05C182.544 32.05 183.024 32.15 183.451 32.35C183.877 32.55 184.221 32.81 184.481 33.13L183.521 34.17C183.307 33.9367 183.071 33.7567 182.811 33.63C182.551 33.4967 182.274 33.43 181.981 33.43C181.701 33.43 181.481 33.4933 181.321 33.62C181.167 33.7467 181.091 33.89 181.091 34.05C181.091 34.2033 181.151 34.34 181.271 34.46C181.391 34.5733 181.584 34.65 181.851 34.69L182.391 34.77C183.117 34.8767 183.677 35.11 184.071 35.47C184.471 35.8233 184.671 36.3 184.671 36.9C184.671 37.24 184.601 37.55 184.461 37.83C184.327 38.1033 184.141 38.34 183.901 38.54C183.661 38.7333 183.374 38.8833 183.041 38.99C182.714 39.0967 182.354 39.15 181.961 39.15Z" fill="#003984"/>
</svg>
